<svg width="18" height="18" viewBox="0 0 18 18" fill="none" xmlns="http://www.w3.org/2000/svg">
<path d="M13.773 6.87868L11.3865 9.26517C11.0936 9.55806 11.0936 10.0329 11.3865 10.3258C11.6794 10.6187 12.1543 10.6187 12.4472 10.3258L14.8337 7.93934C16.1517 6.62132 16.1517 4.48439 14.8337 3.16637C13.5156 1.84835 11.3787 1.84835 10.0607 3.16637L7.67421 5.55286C7.38132 5.84575 7.38132 6.32062 7.67421 6.61352C7.96711 6.90641 8.44198 6.90641 8.73487 6.61352L11.1214 4.22703C11.8536 3.4948 13.0408 3.4948 13.773 4.22703C14.5052 4.95926 14.5052 6.14645 13.773 6.87868Z" fill="#00809B"/>
<path d="M6.87868 13.773L9.26517 11.3865C9.55806 11.0936 10.0329 11.0936 10.3258 11.3865C10.6187 11.6794 10.6187 12.1542 10.3258 12.4471L7.93934 14.8336C6.62132 16.1516 4.48439 16.1516 3.16637 14.8336C1.84835 13.5156 1.84835 11.3787 3.16637 10.0607L5.55286 7.67417C5.84575 7.38127 6.32062 7.38127 6.61352 7.67417C6.90641 7.96706 6.90641 8.44193 6.61352 8.73483L4.22703 11.1213C3.4948 11.8535 3.4948 13.0407 4.22703 13.773C4.95926 14.5052 6.14645 14.5052 6.87868 13.773Z" fill="#00809B"/>
<path d="M6.87867 10.0607C6.58577 10.3535 6.58577 10.8284 6.87867 11.1213C7.17156 11.4142 7.64643 11.4142 7.93933 11.1213L11.1213 7.93933C11.4142 7.64644 11.4142 7.17156 11.1213 6.87867C10.8284 6.58578 10.3535 6.58578 10.0606 6.87867L6.87867 10.0607Z" fill="#00809B"/>
</svg>
